#!OML:ASF F:\VICON\USERDATA\INSTALL\rory3\rory3.ASF
:FULLY-SPECIFIED
:DEGREES
1317
root 1.16539 20.6684 3.62821 15.4686 -10.0629 -3.59276
lowerback -12.1902 -0.856669 3.56374
upperback -7.48226 -1.54111 2.10817
thorax -1.04108 -0.866508 0.0196763
lowerneck -7.74272 -11.5313 -14.1989
upperneck 25.4245 -15.4195 5.22688
head 11.038 -7.95661 2.18746
rclavicle -1.41634e-014 -4.77083e-015
rhumerus -41.8829 9.80796 -89.1932
rradius 23.0156
rwrist 13.4789
rhand -25.0591 -47.4299
rfingers 7.12502
rthumb 1.45444 -77.4047
lclavicle -1.41634e-014 -4.77083e-015
lhumerus -53.4616 -4.32757 89.7325
lradius 30.1577
lwrist 12.4855
lhand -34.8877 -30.1526
lfingers 7.12502
lthumb -8.03638 -0.325435
rfemur -25.9352 7.03239 13.409
rtibia 29.1039
rfoot 15.3988 -8.58615
rtoes -14.9493
lfemur -19.9606 0.851402 -8.6228
ltibia 26.3161
lfoot 13.9749 7.86346
ltoes -15.7974
1318
root 1.16473 20.6558 3.60568 15.2578 -10.0977 -3.37779
lowerback -12.3706 -0.854288 3.04215
upperback -7.10579 -1.50245 1.90629
thorax -0.535299 -0.824278 0.0957748
lowerneck -7.39775 -11.5543 -14.2034
upperneck 25.1116 -15.6145 5.74014
head 10.92 -8.00115 2.36437
rclavicle -6.33626e-015 -1.31198e-014
rhumerus -40.6515 9.10104 -88.925
rradius 22.8285
rwrist 13.9194
rhand -25.275 -47.4347
rfingers 7.12502
rthumb 1.24601 -77.4108
lclavicle -6.33626e-015 -1.31198e-014
lhumerus -53.5331 -5.31727 90.0723
lradius 29.5647
lwrist 11.7346
lhand -34.11 -30.0316
lfingers 7.12502
lthumb -7.28577 -0.177003
rfemur -26.1796 7.14155 13.0344
rtibia 29.6245
rfoot 14.6482 -8.45082
rtoes -12.4845
lfemur -19.7831 0.420249 -8.77867
ltibia 26.2992
lfoot 14.3404 7.55748
ltoes -16.044
1319
root 1.16555 20.6297 3.59043 14.9715 -10.002 -3.16447
lowerback -11.8741 -1.00665 2.36467
upperback -7.28774 -1.61145 1.90411
thorax -0.973936 -0.86383 0.474322
lowerneck -6.89365 -11.4904 -14.3742
upperneck 25.2739 -15.6146 5.8358
head 10.9095 -8.02618 2.45146
rclavicle 2.8948e-014 -1.33186e-014
rhumerus -40.6064 8.77973 -88.6897
rradius 23.0168
rwrist 14.5755
rhand -25.2613 -47.4619
rfingers 7.12502
rthumb 1.25923 -77.4379
lclavicle 2.8948e-014 -1.33186e-014
lhumerus -54.6346 -5.88164 90.6161
lradius 29.1778
lwrist 10.9713
lhand -33.6357 -30.9386
lfingers 7.12502
lthumb -6.82794 -1.0687
rfemur -26.2836 7.06664 12.7662
rtibia 30.2242
rfoot 13.7697 -7.75105
rtoes -13.0452
lfemur -19.5208 -0.102962 -8.93485
ltibia 26.3523
lfoot 14.6836 7.63618
ltoes -16.1704
1320
root 1.16916 20.5821 3.58189 14.3272 -9.47439 -2.97601
lowerback -11.2482 -1.30854 1.84685
upperback -7.17781 -1.94264 1.90693
thorax -1.17979 -1.01302 0.745961
lowerneck -6.76631 -11.4414 -14.3548
upperneck 25.4169 -15.5788 5.82914
head 10.9321 -8.01499 2.45821
rclavicle -2.52953e-014 -7.95139e-016
rhumerus -40.176 8.64355 -88.5635
rradius 23.2487
rwrist 14.8718
rhand -25.2012 -48.8393
rfingers 7.12502
rthumb 1.31727 -78.815
lclavicle -2.52953e-014 -7.95139e-016
lhumerus -55.3281 -6.41795 91.0995
lradius 28.8462
lwrist 10.2798
lhand -32.8913 -31.008
lfingers 7.12502
lthumb -6.10927 -1.11611
rfemur -25.846 6.58458 12.7459
rtibia 30.8977
rfoot 12.8887 -6.54766
rtoes -15.8552
lfemur -19.0035 -0.817723 -9.0139
ltibia 26.4978
lfoot 14.746 7.37641
ltoes -16.8156
1321
root 1.17216 20.5175 3.55678 14.7128 -9.97856 -3.14976
lowerback -11.3481 -1.20041 1.57581
upperback -7.23056 -1.77882 1.97428
thorax -1.17027 -0.921504 0.982412
lowerneck -6.64609 -11.4055 -14.5138
upperneck 25.2519 -15.5877 6.13574
head 10.8899 -8.00524 2.59765
rclavicle 2.09718e-014 -6.16232e-015
rhumerus -39.4305 8.58976 -88.4533
rradius 23.43
rwrist 14.7376
rhand -25.0489 -50.4861
rfingers 7.12502
rthumb 1.46431 -80.4608
lclavicle 2.09718e-014 -6.16232e-015
lhumerus -55.6975 -7.02122 91.5875
lradius 28.4494
lwrist 9.5891
lhand -32.0741 -30.6875
lfingers 7.12502
lthumb -5.32028 -0.77432
rfemur -26.8535 6.53797 12.7461
rtibia 31.5726
rfoot 12.0839 -5.36013
rtoes -17.551
lfemur -19.3391 -0.666757 -8.92565
ltibia 26.7491
lfoot 14.6272 7.60703
ltoes -17.3664
1322
root 1.17383 20.4369 3.53984 14.8384 -9.98143 -3.2135
lowerback -11.2521 -1.29626 1.20881
upperback -7.3541 -1.86912 2.07715
thorax -1.33586 -0.95359 1.29057
lowerneck -5.98243 -11.3398 -15.087
upperneck 24.9306 -15.6431 6.74293
head 10.7579 -8.0424 2.93001
rclavicle -2.01269e-014 4.96962e-015
rhumerus -39.0485 8.59857 -88.3564
rradius 23.6593
rwrist 14.4078
rhand -25.463 -51.0798
rfingers 7.12502
rthumb 1.06443 -81.0569
lclavicle -2.01269e-014 4.96962e-015
lhumerus -56.323 -7.51604 92.1416
lradius 27.995
lwrist 8.865
lhand -31.3979 -30.8247
lfingers 7.12502
lthumb -4.66735 -0.896088
rfemur -27.3391 6.40116 12.7256
rtibia 32.217
rfoot 10.8193 -5.39802
rtoes -16.8376
lfemur -19.515 -0.927179 -8.81544
ltibia 26.9931
lfoot 14.2803 7.96871
ltoes -17.3466
1323
root 1.17826 20.3488 3.53137 14.63 -9.46947 -3.2133
lowerback -11.3264 -1.48267 0.99083
upperback -7.11708 -2.10055 2.03983
thorax -1.03689 -1.06179 1.34371
lowerneck -6.13851 -11.4756 -15.1972
upperneck 25.223 -15.8457 6.8232
head 10.9415 -8.13246 2.92835
rclavicle -2.76932e-014 5.56597e-015
rhumerus -38.2666 8.44004 -88.3608
rradius 23.7404
rwrist 13.7981
rhand -26.697 -50.7656
rfingers 7.12502
rthumb -0.12746 -80.7453
lclavicle -2.76932e-014 5.56597e-015
lhumerus -56.5948 -8.4573 92.7383
lradius 27.6035
lwrist 8.392
lhand -30.6105 -30.8568
lfingers 7.12502
lthumb -3.90701 -0.912913
rfemur -27.2875 6.05193 12.7862
rtibia 32.8353
rfoot 9.52267 -5.40032
rtoes -16.3049
lfemur -19.5187 -1.54321 -8.66078
ltibia 27.2968
lfoot 13.6811 8.27981
ltoes -16.4392
1324
root 1.18144 20.258 3.52657 14.0226 -8.4333 -3.23175
lowerback -11.0245 -1.76887 0.885241
upperback -6.74253 -2.46649 1.96056
thorax -0.800327 -1.24135 1.28385
lowerneck -7.3425 -11.8409 -14.671
upperneck 26.3615 -16.1189 5.89996
head 11.5076 -8.26483 2.38686
rclavicle -1.71887e-014 1.03368e-014
rhumerus -37.3999 8.09918 -88.2989
rradius 23.7965
rwrist 13.328
rhand -27.8803 -50.4182
rfingers 7.12502
rthumb -1.27028 -80.3942
lclavicle -1.71887e-014 1.03368e-014
lhumerus -56.8243 -9.65421 93.4325
lradius 27.3424
lwrist 8.17535
lhand -29.9765 -30.5047
lfingers 7.12502
lthumb -3.29479 -0.550447
rfemur -26.6572 5.46152 13.067
rtibia 33.3965
rfoot 8.61708 -5.11434
rtoes -16.9666
lfemur -19.1343 -2.40421 -8.38709
ltibia 27.4527
lfoot 12.7994 8.26284
ltoes -14.9004
